<svg width="29" height="27" viewBox="0 0 29 27" fill="none" xmlns="http://www.w3.org/2000/svg">
<g clip-path="url(#clip0_5105_2011)">
<path fill-rule="evenodd" clip-rule="evenodd" d="M27.7082 3.29232C27.8013 3.38521 27.8752 3.49557 27.9256 3.61706C27.976 3.73855 28.002 3.86879 28.002 4.00032C28.002 4.13186 27.976 4.2621 27.9256 4.38359C27.8752 4.50508 27.8013 4.61543 27.7082 4.70832L13.7082 18.7083C13.6153 18.8015 13.505 18.8753 13.3835 18.9257C13.262 18.9762 13.1317 19.0021 13.0002 19.0021C12.8687 19.0021 12.7384 18.9762 12.6169 18.9257C12.4954 18.8753 12.3851 18.8015 12.2922 18.7083L6.2922 12.7083C6.19922 12.6153 6.12547 12.505 6.07515 12.3835C6.02483 12.262 5.99893 12.1318 5.99893 12.0003C5.99893 11.8688 6.02483 11.7386 6.07515 11.6172C6.12547 11.4957 6.19922 11.3853 6.2922 11.2923C6.38517 11.1993 6.49555 11.1256 6.61703 11.0753C6.73851 11.025 6.86871 10.9991 7.0002 10.9991C7.13168 10.9991 7.26188 11.025 7.38336 11.0753C7.50484 11.1256 7.61522 11.1993 7.7082 11.2923L13.0002 16.5863L26.2922 3.29232C26.3851 3.1992 26.4954 3.12531 26.6169 3.0749C26.7384 3.02448 26.8687 2.99854 27.0002 2.99854C27.1317 2.99854 27.262 3.02448 27.3835 3.0749C27.505 3.12531 27.6153 3.1992 27.7082 3.29232Z" fill="#2DC071"/>
<path fill-rule="evenodd" clip-rule="evenodd" d="M13 3.00022C10.8244 3.00022 8.69769 3.64536 6.88875 4.85406C5.07981 6.06275 3.66991 7.78072 2.83734 9.79071C2.00478 11.8007 1.78694 14.0124 2.21138 16.1462C2.63582 18.28 3.68347 20.24 5.22184 21.7784C6.76022 23.3168 8.72023 24.3644 10.854 24.7889C12.9878 25.2133 15.1996 24.9955 17.2095 24.1629C19.2195 23.3303 20.9375 21.9204 22.1462 20.1115C23.3549 18.3026 24 16.1758 24 14.0002C24 13.735 24.1054 13.4807 24.2929 13.2931C24.4805 13.1056 24.7348 13.0002 25 13.0002C25.2652 13.0002 25.5196 13.1056 25.7071 13.2931C25.8947 13.4807 26 13.735 26 14.0002C25.9997 16.8619 25.0551 19.6435 23.3127 21.9136C21.5704 24.1837 19.1277 25.8155 16.3635 26.5559C13.5992 27.2963 10.6679 27.1039 8.02417 26.0086C5.38042 24.9133 3.17195 22.9762 1.74127 20.4978C0.310593 18.0195 -0.262343 15.1383 0.111317 12.3011C0.484977 9.46392 1.78435 6.82931 3.80793 4.80587C5.8315 2.78243 8.46619 1.48322 11.3034 1.10974C14.1406 0.736265 17.0217 1.30939 19.5 2.74022C19.6195 2.80274 19.7252 2.88878 19.8105 2.99318C19.8959 3.09757 19.9593 3.21816 19.9969 3.34769C20.0345 3.47721 20.0455 3.61301 20.0292 3.74689C20.0129 3.88078 19.9698 4.00999 19.9023 4.12675C19.8348 4.24352 19.7444 4.34542 19.6365 4.42634C19.5286 4.50725 19.4054 4.56551 19.2744 4.59759C19.1434 4.62968 19.0073 4.63494 18.8742 4.61305C18.7411 4.59116 18.6138 4.54258 18.5 4.47022C16.8285 3.5036 14.9309 2.99644 13 3.00022Z" fill="#2DC071"/>
</g>
<defs>
<clipPath id="clip0_5105_2011">
<rect width="29" height="27" fill="white"/>
</clipPath>
</defs>
</svg>
