<svg width="183" height="48" viewBox="0 0 183 48" fill="none" xmlns="http://www.w3.org/2000/svg">
<path d="M34.9808 3.38814L28.5132 7.69583C28.1792 7.9183 28.2301 8.42379 28.6018 8.57509L30.0833 9.17807C30.236 9.24022 30.4095 9.2231 30.5471 9.13231L35.1742 6.07957C35.3315 5.97579 35.5338 5.96927 35.6975 6.0627L42.5929 9.99924C42.7488 10.0882 42.845 10.254 42.845 10.4335V18.8151C42.845 18.9861 42.7576 19.1453 42.6133 19.2371L40.9584 20.2892C40.814 20.3809 40.7266 20.5401 40.7266 20.7111V22.349C40.7266 22.756 41.187 22.9925 41.5179 22.7554L44.9473 20.2975C45.0783 20.2036 45.156 20.0523 45.156 19.8911V9.18252C45.156 9.0032 45.06 8.83762 44.9043 8.74856L35.5063 3.37032C35.3419 3.27623 35.1385 3.28313 34.9808 3.38814Z" fill="#EE0033"/>
<path d="M34.7243 39.1445L34.5351 31.3024C34.5252 30.8947 34.0655 30.6649 33.742 30.906L32.4597 31.8618C32.3305 31.9581 32.2558 32.1119 32.259 32.2746L32.3705 37.8904C32.3742 38.0764 32.2761 38.2488 32.1155 38.3384L25.176 42.2087C25.0187 42.2964 24.8263 42.2909 24.6731 42.1942L17.6715 37.776C17.5254 37.6838 17.4362 37.5221 17.4356 37.3483L17.429 35.3698C17.4285 35.196 17.3393 35.0343 17.1932 34.9421L15.8267 34.0798C15.4845 33.8638 15.046 34.126 15.0695 34.5326L15.3161 38.8003C15.3256 38.9641 15.4133 39.1134 15.5512 39.2004L24.4996 44.8471C24.6527 44.9436 24.8449 44.9493 25.0021 44.8618L34.4689 39.5949C34.6305 39.505 34.7288 39.3315 34.7243 39.1445Z" fill="#EE0033"/>
<path d="M5.06285 20.8125L11.8978 24.4707C12.2533 24.6609 12.6758 24.3653 12.6263 23.961L12.4302 22.3586C12.4104 22.1975 12.3148 22.0565 12.1735 21.9801L7.28962 19.3386C7.12804 19.2512 7.02792 19.0805 7.02925 18.8947L7.0871 10.8566C7.08841 10.6743 7.18719 10.5064 7.34527 10.4177L14.5597 6.36923C14.7104 6.28463 14.8932 6.28446 15.043 6.36878L16.7472 7.32814C16.8969 7.41246 17.0797 7.41229 17.2305 7.32769L18.6383 6.53764C18.9911 6.33966 18.9801 5.82365 18.6192 5.64619L14.8285 3.78217C14.683 3.71063 14.5116 3.71556 14.3694 3.79538L5.14881 8.96968C4.99089 9.0583 4.89214 9.22598 4.89064 9.40804L4.80059 20.3671C4.79906 20.5538 4.90005 20.7254 5.06285 20.8125Z" fill="#EE0033"/>
<path d="M25.0962 4.8095L36.7886 11.6609L25.026 18.7083L13.3596 11.661L25.0962 4.8095Z" fill="#EE0033"/>
<path d="M22.8983 22.1682L22.8983 36.1303L11.0186 29.3767L11.0186 15.5758L22.8983 22.1682Z" fill="#EE0033"/>
<path d="M39.02 29.538L39.02 15.5759L27.1403 22.5253L27.1403 36.2282L39.02 29.538Z" fill="#EE0033"/>
<path d="M59.4055 39.4085H57.1465L56.7955 40.5605H55.5985L57.7675 34.2605H58.7845L60.9535 40.5605H59.7565L59.4055 39.4085ZM59.1265 38.4995L58.2805 35.7455L57.4255 38.4995H59.1265ZM63.881 34.2605H65.897C66.623 34.2605 67.172 34.4285 67.544 34.7645C67.922 35.0945 68.111 35.5835 68.111 36.2315C68.111 36.9215 67.916 37.4465 67.526 37.8065C67.142 38.1605 66.584 38.3375 65.852 38.3375H65.015V40.5605H63.881V34.2605ZM65.951 37.4195C66.293 37.4195 66.554 37.3235 66.734 37.1315C66.914 36.9335 67.004 36.6485 67.004 36.2765C67.004 35.9165 66.908 35.6435 66.716 35.4575C66.53 35.2715 66.254 35.1785 65.888 35.1785H65.015V37.4195H65.951ZM69.0196 37.1585C69.0196 36.6485 69.0106 36.2825 68.9926 36.0605H69.9556C69.9796 36.2945 69.9916 36.5585 69.9916 36.8525V36.9425H70.0186C70.1326 36.6425 70.3276 36.4055 70.6036 36.2315C70.8796 36.0575 71.1976 35.9705 71.5576 35.9705C71.6656 35.9705 71.7556 35.9795 71.8276 35.9975V36.8075C71.7676 36.7955 71.6866 36.7895 71.5846 36.7895C71.3026 36.7895 71.0416 36.8675 70.8016 37.0235C70.5676 37.1735 70.3816 37.3805 70.2436 37.6445C70.1056 37.9085 70.0366 38.1935 70.0366 38.4995V40.5605H69.0196V37.1585ZM74.4113 40.6505C73.7033 40.6505 73.1453 40.4435 72.7373 40.0295C72.3353 39.6095 72.1343 39.0365 72.1343 38.3105C72.1343 37.5845 72.3353 37.0145 72.7373 36.6005C73.1453 36.1805 73.7033 35.9705 74.4113 35.9705C75.1193 35.9705 75.6743 36.1805 76.0763 36.6005C76.4843 37.0145 76.6883 37.5845 76.6883 38.3105C76.6883 39.0365 76.4843 39.6095 76.0763 40.0295C75.6743 40.4435 75.1193 40.6505 74.4113 40.6505ZM74.4113 39.8855C74.8013 39.8855 75.1073 39.7475 75.3293 39.4715C75.5513 39.1895 75.6623 38.8025 75.6623 38.3105C75.6623 37.8185 75.5513 37.4345 75.3293 37.1585C75.1073 36.8765 74.8013 36.7355 74.4113 36.7355C74.0213 36.7355 73.7153 36.8765 73.4933 37.1585C73.2713 37.4345 73.1603 37.8185 73.1603 38.3105C73.1603 38.8025 73.2713 39.1895 73.4933 39.4715C73.7153 39.7475 74.0213 39.8855 74.4113 39.8855ZM79.1477 40.6505C78.5597 40.6505 78.0977 40.4345 77.7617 40.0025C77.4257 39.5705 77.2577 38.9795 77.2577 38.2295C77.2577 37.7735 77.3357 37.3775 77.4917 37.0415C77.6477 36.6995 77.8697 36.4355 78.1577 36.2495C78.4457 36.0635 78.7847 35.9705 79.1747 35.9705C79.7087 35.9705 80.1287 36.1685 80.4347 36.5645H80.4527V33.8825H81.4697V39.3815C81.4697 39.9875 81.4787 40.3805 81.4967 40.5605H80.5427C80.5307 40.4405 80.5247 40.2275 80.5247 39.9215H80.5067C80.3687 40.1375 80.1737 40.3145 79.9217 40.4525C79.6757 40.5845 79.4177 40.6505 79.1477 40.6505ZM79.3367 39.8585C79.6727 39.8585 79.9397 39.7595 80.1377 39.5615C80.3417 39.3635 80.4437 39.0965 80.4437 38.7605V37.8695C80.4437 37.5395 80.3387 37.2695 80.1287 37.0595C79.9247 36.8435 79.6607 36.7355 79.3367 36.7355C78.9947 36.7355 78.7307 36.8675 78.5447 37.1315C78.3647 37.3955 78.2747 37.7675 78.2747 38.2475C78.2747 38.7575 78.3677 39.1535 78.5537 39.4355C78.7397 39.7175 79.0007 39.8585 79.3367 39.8585ZM84.0053 40.6505C83.4893 40.6505 83.0993 40.4795 82.8353 40.1375C82.5713 39.7955 82.4393 39.2885 82.4393 38.6165V36.0605H83.4563V38.6255C83.4563 39.0335 83.5253 39.3365 83.6633 39.5345C83.8013 39.7265 84.0143 39.8225 84.3023 39.8225C84.6443 39.8225 84.9233 39.6935 85.1393 39.4355C85.3613 39.1775 85.4723 38.8565 85.4723 38.4725V36.0605H86.4893V39.4805C86.4893 39.8105 86.5163 40.1705 86.5703 40.5605H85.6073C85.5533 40.2725 85.5263 40.0085 85.5263 39.7685H85.4993C85.3793 40.0385 85.1843 40.2545 84.9143 40.4165C84.6503 40.5725 84.3473 40.6505 84.0053 40.6505ZM89.4468 40.6505C88.7568 40.6505 88.2168 40.4435 87.8268 40.0295C87.4428 39.6155 87.2508 39.0425 87.2508 38.3105C87.2508 37.5785 87.4428 37.0055 87.8268 36.5915C88.2168 36.1775 88.7568 35.9705 89.4468 35.9705C89.8488 35.9705 90.2028 36.0485 90.5088 36.2045C90.8148 36.3545 91.0518 36.5705 91.2198 36.8525L90.6078 37.3925C90.4878 37.1945 90.3288 37.0415 90.1308 36.9335C89.9328 36.8195 89.7198 36.7625 89.4918 36.7625C89.1078 36.7625 88.8078 36.9005 88.5918 37.1765C88.3758 37.4465 88.2678 37.8245 88.2678 38.3105C88.2678 38.7905 88.3758 39.1685 88.5918 39.4445C88.8078 39.7205 89.1078 39.8585 89.4918 39.8585C89.7198 39.8585 89.9328 39.8015 90.1308 39.6875C90.3288 39.5735 90.4878 39.4175 90.6078 39.2195L91.2198 39.7595C91.0518 40.0475 90.8148 40.2695 90.5088 40.4255C90.2088 40.5755 89.8548 40.6505 89.4468 40.6505ZM93.6798 40.6505C93.2418 40.6505 92.8968 40.5245 92.6448 40.2725C92.3988 40.0145 92.2758 39.6605 92.2758 39.2105V36.8255H91.4658V36.0605H92.2758V34.8905L93.2658 34.5935H93.3018V36.0605H94.5978V36.8255H93.3018V39.0755C93.3018 39.3455 93.3588 39.5465 93.4728 39.6785C93.5928 39.8045 93.7758 39.8675 94.0218 39.8675C94.2858 39.8675 94.5018 39.8315 94.6698 39.7595L94.7238 40.4795C94.4778 40.5935 94.1298 40.6505 93.6798 40.6505ZM99.7238 40.6505C99.0158 40.6505 98.4578 40.4435 98.0498 40.0295C97.6478 39.6095 97.4468 39.0365 97.4468 38.3105C97.4468 37.5845 97.6478 37.0145 98.0498 36.6005C98.4578 36.1805 99.0158 35.9705 99.7238 35.9705C100.432 35.9705 100.987 36.1805 101.389 36.6005C101.797 37.0145 102.001 37.5845 102.001 38.3105C102.001 39.0365 101.797 39.6095 101.389 40.0295C100.987 40.4435 100.432 40.6505 99.7238 40.6505ZM99.7238 39.8855C100.114 39.8855 100.42 39.7475 100.642 39.4715C100.864 39.1895 100.975 38.8025 100.975 38.3105C100.975 37.8185 100.864 37.4345 100.642 37.1585C100.42 36.8765 100.114 36.7355 99.7238 36.7355C99.3338 36.7355 99.0278 36.8765 98.8058 37.1585C98.5838 37.4345 98.4728 37.8185 98.4728 38.3105C98.4728 38.8025 98.5838 39.1895 98.8058 39.4715C99.0278 39.7475 99.3338 39.8855 99.7238 39.8855ZM103.128 36.7625H102.39V36.0605H103.128V35.5115C103.128 35.0735 103.263 34.7315 103.533 34.4855C103.803 34.2335 104.172 34.1075 104.64 34.1075C104.844 34.1075 105.036 34.1405 105.216 34.2065C105.396 34.2665 105.546 34.3535 105.666 34.4675L105.306 35.0795C105.234 35.0195 105.15 34.9715 105.054 34.9355C104.958 34.8995 104.859 34.8815 104.757 34.8815C104.571 34.8815 104.424 34.9445 104.316 35.0705C104.208 35.1905 104.154 35.3585 104.154 35.5745V36.0605H105.423V36.7625H104.154V40.5605H103.128V36.7625ZM113.25 34.2605L111.072 40.5605H110.019L107.841 34.2605H109.038L110.55 39.0935L112.053 34.2605H113.25ZM114.571 35.4485C114.367 35.4485 114.202 35.3945 114.076 35.2865C113.956 35.1725 113.896 35.0225 113.896 34.8365C113.896 34.6445 113.956 34.4945 114.076 34.3865C114.202 34.2725 114.367 34.2155 114.571 34.2155C114.775 34.2155 114.937 34.2725 115.057 34.3865C115.183 34.4945 115.246 34.6445 115.246 34.8365C115.246 35.0225 115.183 35.1725 115.057 35.2865C114.937 35.3945 114.775 35.4485 114.571 35.4485ZM114.058 36.0605H115.084V40.5605H114.058V36.0605ZM118.078 40.6505C117.64 40.6505 117.295 40.5245 117.043 40.2725C116.797 40.0145 116.674 39.6605 116.674 39.2105V36.8255H115.864V36.0605H116.674V34.8905L117.664 34.5935H117.7V36.0605H118.996V36.8255H117.7V39.0755C117.7 39.3455 117.757 39.5465 117.871 39.6785C117.991 39.8045 118.174 39.8675 118.42 39.8675C118.684 39.8675 118.9 39.8315 119.068 39.7595L119.122 40.4795C118.876 40.5935 118.528 40.6505 118.078 40.6505ZM123.921 38.6885H120.753C120.855 39.4205 121.254 39.7865 121.95 39.7865C122.214 39.7865 122.448 39.7385 122.652 39.6425C122.856 39.5465 123.045 39.3965 123.219 39.1925L123.777 39.7235C123.603 40.0055 123.345 40.2305 123.003 40.3985C122.667 40.5665 122.298 40.6505 121.896 40.6505C121.206 40.6505 120.669 40.4465 120.285 40.0385C119.901 39.6245 119.709 39.0515 119.709 38.3195C119.709 37.5875 119.901 37.0145 120.285 36.6005C120.675 36.1805 121.206 35.9705 121.878 35.9705C122.52 35.9705 123.021 36.1775 123.381 36.5915C123.741 37.0055 123.921 37.5785 123.921 38.3105V38.6885ZM122.94 37.9235C122.94 37.5695 122.844 37.2935 122.652 37.0955C122.46 36.8975 122.193 36.7985 121.851 36.7985C121.539 36.7985 121.287 36.9035 121.095 37.1135C120.909 37.3175 120.792 37.6055 120.744 37.9775H122.94V37.9235ZM127.361 40.6505C126.785 40.6505 126.281 40.5185 125.849 40.2545C125.423 39.9905 125.093 39.6155 124.859 39.1295C124.625 38.6375 124.508 38.0645 124.508 37.4105C124.508 36.7505 124.625 36.1775 124.859 35.6915C125.093 35.2055 125.426 34.8305 125.858 34.5665C126.29 34.3025 126.797 34.1705 127.379 34.1705C127.865 34.1705 128.291 34.2635 128.657 34.4495C129.023 34.6355 129.293 34.8965 129.467 35.2325L128.819 35.8175C128.495 35.3315 128.018 35.0885 127.388 35.0885C126.83 35.0885 126.401 35.2895 126.101 35.6915C125.801 36.0875 125.651 36.6605 125.651 37.4105C125.651 38.1545 125.798 38.7275 126.092 39.1295C126.386 39.5315 126.806 39.7325 127.352 39.7325C128.018 39.7325 128.507 39.4865 128.819 38.9945L129.467 39.5795C129.293 39.9215 129.023 40.1855 128.657 40.3715C128.291 40.5575 127.859 40.6505 127.361 40.6505ZM130.173 33.8825H131.19V36.6455C131.328 36.4355 131.526 36.2705 131.784 36.1505C132.042 36.0305 132.321 35.9705 132.621 35.9705C133.137 35.9705 133.545 36.1415 133.845 36.4835C134.151 36.8255 134.304 37.2965 134.304 37.8965V40.5605H133.278V37.9505C133.278 37.5665 133.197 37.2695 133.035 37.0595C132.879 36.8435 132.657 36.7355 132.369 36.7355C132.015 36.7355 131.73 36.8615 131.514 37.1135C131.298 37.3655 131.19 37.6955 131.19 38.1035V40.5605H130.173V33.8825ZM136.603 40.6505C136.309 40.6505 136.045 40.5905 135.811 40.4705C135.583 40.3445 135.403 40.1735 135.271 39.9575C135.145 39.7415 135.082 39.4985 135.082 39.2285C135.082 38.7725 135.259 38.4215 135.613 38.1755C135.973 37.9295 136.48 37.8065 137.134 37.8065H137.917V37.5995C137.917 37.3295 137.839 37.1225 137.683 36.9785C137.527 36.8345 137.308 36.7625 137.026 36.7625C136.756 36.7625 136.501 36.8135 136.261 36.9155C136.027 37.0115 135.832 37.1525 135.676 37.3385L135.208 36.7355C135.436 36.4895 135.712 36.3005 136.036 36.1685C136.36 36.0365 136.702 35.9705 137.062 35.9705C137.65 35.9705 138.109 36.1115 138.439 36.3935C138.769 36.6695 138.934 37.0595 138.934 37.5635V39.6335C138.934 39.7595 138.946 39.9125 138.97 40.0925C138.994 40.2665 139.021 40.4225 139.051 40.5605H138.142C138.088 40.4345 138.049 40.2455 138.025 39.9935H138.007C137.659 40.4315 137.191 40.6505 136.603 40.6505ZM136.837 39.8765C137.143 39.8765 137.398 39.7955 137.602 39.6335C137.812 39.4655 137.917 39.2615 137.917 39.0215V38.4995H137.107C136.777 38.4995 136.522 38.5625 136.342 38.6885C136.168 38.8145 136.081 38.9945 136.081 39.2285C136.081 39.4325 136.147 39.5915 136.279 39.7055C136.411 39.8195 136.597 39.8765 136.837 39.8765ZM140.683 35.4485C140.479 35.4485 140.314 35.3945 140.188 35.2865C140.068 35.1725 140.008 35.0225 140.008 34.8365C140.008 34.6445 140.068 34.4945 140.188 34.3865C140.314 34.2725 140.479 34.2155 140.683 34.2155C140.887 34.2155 141.049 34.2725 141.169 34.3865C141.295 34.4945 141.358 34.6445 141.358 34.8365C141.358 35.0225 141.295 35.1725 141.169 35.2865C141.049 35.3945 140.887 35.4485 140.683 35.4485ZM140.17 36.0605H141.196V40.5605H140.17V36.0605ZM142.337 37.2305C142.337 36.6725 142.325 36.2825 142.301 36.0605H143.255C143.285 36.3425 143.3 36.6065 143.3 36.8525H143.318C143.432 36.5825 143.627 36.3695 143.903 36.2135C144.179 36.0515 144.485 35.9705 144.821 35.9705C145.343 35.9705 145.736 36.1445 146 36.4925C146.264 36.8345 146.396 37.3445 146.396 38.0225V40.5605H145.37V38.0135C145.37 37.5935 145.301 37.2845 145.163 37.0865C145.031 36.8885 144.818 36.7895 144.524 36.7895C144.176 36.7895 143.894 36.9125 143.678 37.1585C143.462 37.3985 143.354 37.7105 143.354 38.0945V40.5605H142.337V37.2305Z" fill="black"/>
<path d="M58.2365 12.0242H55.0905L60.3425 24.7382C60.8365 25.9862 61.7205 25.9602 62.4745 25.9602C63.2285 25.9602 64.0865 25.9862 64.5805 24.7382L69.8325 12.0242H66.6865L62.8385 22.2422C62.7605 22.4502 62.6565 22.7882 62.4745 22.7882C62.2925 22.7882 62.1885 22.4502 62.1105 22.2422L58.2365 12.0242ZM85.6161 23.0742H75.7621C74.7221 23.0742 74.4621 22.8142 74.4621 21.7742V17.8742H85.2521V15.1442H74.4621V11.6342C74.4621 10.5942 74.7221 10.3342 75.7621 10.3342H85.5121V7.6042H73.6821C72.1221 7.6042 71.0301 8.2542 71.0301 10.3342V23.0742C71.0301 25.1542 72.1221 25.8042 73.6821 25.8042H85.6161V23.0742ZM102.76 25.8042V23.0742H96.7796C92.3596 23.0742 90.9816 21.6442 90.9816 16.7042C90.9816 11.7642 92.3596 10.3342 96.7796 10.3342H102.474V7.6042H95.1676C88.9276 7.6042 87.4456 11.5042 87.4456 16.7042C87.4456 21.9042 88.9276 25.8042 95.1676 25.8042H102.76ZM116.661 25.8042V23.4642H109.926C107.3 23.4642 106.962 22.0082 106.962 19.9282H114.97C116.531 19.9282 117.102 18.8882 117.102 17.3282C117.102 12.9082 114.346 11.8682 110.472 11.8682C105.792 11.8682 103.816 13.4022 103.816 18.8882C103.816 23.3342 104.596 25.8042 109.016 25.8042H116.661ZM106.962 17.5882C106.962 15.2222 107.872 14.2082 110.472 14.2082C112.292 14.2082 113.956 14.9622 113.956 16.7822C113.956 17.1722 113.878 17.5882 113.28 17.5882H106.962ZM119.086 25.8042H122.128V18.0302C122.128 15.5602 122.96 14.3642 125.43 14.3642H126.704V12.0242H124.65C120.932 12.0242 119.086 13.5062 119.086 17.2242V25.8042ZM136.608 25.8042V23.4642H135.854C133.774 23.4642 132.682 22.7622 132.682 20.6822V14.3642H136.608V12.0242H132.682V7.6042H129.64V12.0242H127.742V14.3642H129.64V21.3062C129.64 24.7122 131.59 25.8042 134.71 25.8042H136.608Z" fill="#EE0033"/>
</svg>
