<svg width="601" height="375" viewBox="0 0 601 375" fill="none" xmlns="http://www.w3.org/2000/svg">
<path d="M313.848 360.89L561.247 362.253C600.129 171.723 391.619 192.051 374.704 98.8151C356.791 0.0701656 111.975 9.94566 83.8326 87.23C69.4382 126.734 67.183 167.446 152.139 206.978C275.819 264.55 0.00813675 207.439 46.1126 363.576L313.848 360.89Z" fill="#EFEAF7"/>
<path d="M162.841 234.496L166.437 230.497C102.859 173.624 107.696 98.5501 107.756 97.7828L102.382 97.3914C102.342 98.1569 97.2312 175.798 162.841 234.496Z" fill="#8B87CC"/>
<path d="M105.62 101.763C105.62 101.763 111.68 71.932 94.6935 71.8541C87.4712 71.8125 82.8125 85.1835 105.62 101.763Z" fill="#8B87CC"/>
<path d="M105.989 113.025C105.989 113.025 91.0767 84.3183 79.7861 96.5166C74.979 101.729 80.4034 116.027 105.989 113.025Z" fill="#8B87CC"/>
<path d="M104.309 115.534C104.309 115.534 103.947 84.2863 120.214 91.665C127.143 94.8018 129.184 109.701 104.309 115.534Z" fill="#8B87CC"/>
<path d="M109.822 141.528C109.822 141.528 108.014 110.123 124.53 116.712C131.558 119.507 134.25 134.354 109.822 141.528Z" fill="#8B87CC"/>
<path d="M115.833 162.504C115.833 162.504 114.143 131.137 130.634 137.759C137.677 140.568 140.32 155.422 115.833 162.504Z" fill="#8B87CC"/>
<path d="M127.436 186.778C127.436 186.778 120.526 155.603 137.528 159.106C144.775 160.593 149.817 174.991 127.436 186.778Z" fill="#8B87CC"/>
<path d="M139.277 205.029C139.277 205.029 133.197 173.735 150.174 177.773C157.367 179.487 162.046 193.985 139.277 205.029Z" fill="#8B87CC"/>
<path d="M157.943 226.159C157.943 226.159 144.15 196.897 160.954 195.854C168.115 195.414 176.247 208.417 157.943 226.159Z" fill="#8B87CC"/>
<path d="M108.302 134.802C108.302 134.802 93.3722 106.068 82.0772 118.293C77.2831 123.495 82.7014 137.778 108.302 134.802Z" fill="#8B87CC"/>
<path d="M114.283 156.531C114.283 156.531 99.3226 127.81 88.0467 140.025C83.2439 145.225 88.6735 159.517 114.283 156.531Z" fill="#8B87CC"/>
<path d="M123.154 176.761C123.154 176.761 102.844 151.707 94.782 166.672C91.3354 173.038 99.5509 186.014 123.154 176.761Z" fill="#8B87CC"/>
<path d="M135.274 198.137C135.274 198.137 112.837 175.196 106.395 191.176C103.673 197.983 112.986 210.108 135.274 198.137Z" fill="#8B87CC"/>
<path d="M150.354 217.338C150.354 217.338 125.439 197.739 121.315 214.836C119.597 222.118 130.317 232.857 150.354 217.338Z" fill="#8B87CC"/>
<path d="M189.34 351.285C94.1196 297.233 69.7501 214.834 69.5199 213.984L73.068 212.991C73.3068 213.809 97.3206 294.804 191.18 348.082L189.34 351.285Z" fill="#F0346C"/>
<path d="M93.8531 256.481L90.1478 256.557L89.5869 230.908L93.2723 230.818L93.8531 256.481Z" fill="#F0346C"/>
<path d="M107.84 277.381L104.185 276.699L108.965 251.502L112.609 252.159L107.84 277.381Z" fill="#F0346C"/>
<path d="M126.213 299.331L122.553 298.662L127.356 273.435L130.976 274.123L126.213 299.331Z" fill="#F0346C"/>
<path d="M145.655 317.331L142.04 316.655L146.804 291.431L150.446 292.126L145.655 317.331Z" fill="#F0346C"/>
<path d="M166.389 334.876L162.761 334.182L167.533 308.986L171.161 309.682L166.389 334.876Z" fill="#F0346C"/>
<path d="M87.6821 252.591L66.4868 238.021L68.5906 234.996L89.7675 249.541L87.6821 252.591Z" fill="#F0346C"/>
<path d="M102.181 275.114L78.6001 264.834L80.0725 261.453L103.673 271.726L102.181 275.114Z" fill="#F0346C"/>
<path d="M122.883 299.056L97.4318 295.16L98.0082 291.518L123.435 295.393L122.883 299.056Z" fill="#F0346C"/>
<path d="M146.665 321.871L121.035 319.288L121.428 315.627L147.018 318.204L146.665 321.871Z" fill="#F0346C"/>
<path d="M175.391 341.921L149.667 341.679L149.696 337.977L175.43 338.247L175.391 341.921Z" fill="#F0346C"/>
<path d="M75.5441 204.849C78.8701 208.526 78.5749 214.196 74.886 217.486C71.2354 220.791 65.536 220.495 62.2384 216.829C58.9294 213.159 59.2405 207.495 62.8864 204.19C66.5694 200.894 72.239 201.19 75.5441 204.849Z" fill="#F0346C"/>
<path d="M100.14 220.229C103.191 224.111 102.524 229.739 98.6341 232.778C94.7525 235.848 89.1198 235.166 86.0698 231.297C83.013 227.413 83.6754 221.787 87.5423 218.735C91.4386 215.687 97.0748 216.343 100.14 220.229Z" fill="#F0346C"/>
<path d="M117.199 239.7C121.376 242.358 122.576 247.902 119.865 252.058C117.196 256.207 111.658 257.398 107.485 254.724C103.336 252.025 102.146 246.513 104.816 242.364C107.493 238.198 113.046 237.028 117.199 239.7Z" fill="#F0346C"/>
<path d="M135.573 261.643C139.739 264.333 140.934 269.87 138.261 274.009C135.572 278.164 130.011 279.346 125.864 276.688C121.696 274.019 120.497 268.474 123.184 264.324C125.881 260.18 131.439 258.971 135.573 261.643Z" fill="#F0346C"/>
<path d="M155.035 279.641C159.192 282.346 160.411 287.856 157.72 291.997C155.048 296.145 149.484 297.353 145.332 294.693C141.177 291.997 139.95 286.495 142.642 282.322C145.347 278.164 150.884 276.99 155.035 279.641Z" fill="#F0346C"/>
<path d="M175.779 297.2C179.937 299.876 181.142 305.404 178.457 309.552C175.757 313.708 170.216 314.894 166.069 312.201C161.904 309.525 160.7 304.025 163.377 299.865C166.064 295.708 171.603 294.518 175.779 297.2Z" fill="#F0346C"/>
<path d="M53.8511 237.955C55.408 242.612 60.4967 245.136 65.1787 243.588C69.8774 242.018 72.4187 236.942 70.8383 232.261C69.2786 227.592 64.1927 225.057 59.4939 226.626C54.8222 228.202 52.3015 233.253 53.8511 237.955Z" fill="#F0346C"/>
<path d="M66.1646 267.141C68.6054 271.437 74.0699 272.937 78.3717 270.524C82.6753 268.113 84.1998 262.641 81.7733 258.349C79.3311 254.056 73.8937 252.524 69.5719 254.968C65.2501 257.389 63.7432 262.835 66.1646 267.141Z" fill="#F0346C"/>
<path d="M86.0325 300.581C89.4922 304.115 95.1588 304.172 98.6966 300.73C102.226 297.271 102.289 291.625 98.8407 288.1C95.3854 284.561 89.7084 284.49 86.1645 287.955C82.6128 291.394 82.5659 297.048 86.0325 300.581Z" fill="#F0346C"/>
<path d="M109.931 325.267C113.573 328.617 119.232 328.413 122.591 324.776C125.955 321.155 125.749 315.489 122.096 312.146C118.477 308.782 112.798 309.016 109.415 312.651C106.07 316.272 106.293 321.921 109.931 325.267Z" fill="#F0346C"/>
<path d="M139.131 348.646C143.062 351.653 148.672 350.906 151.714 346.998C154.719 343.08 153.98 337.449 150.046 334.463C146.121 331.455 140.512 332.197 137.499 336.111C134.486 340.03 135.207 345.645 139.131 348.646Z" fill="#F0346C"/>
<path d="M367.116 341.15L367.469 346.072C368.534 345.974 393.995 343.608 423.052 330.783C461.728 313.696 487.912 286.078 498.735 250.85L494.304 249.356C469.149 331.176 368.139 341.048 367.116 341.15Z" fill="#D0C6E8"/>
<path d="M494.691 255.143C494.691 255.143 522.341 245.576 516.593 212.798C516.593 212.798 491.067 227.662 494.691 255.143Z" fill="#D0C6E8"/>
<path d="M482.542 279.34C482.542 279.34 515.568 296.332 535.834 259.298C535.834 259.298 518.309 249.626 482.542 279.34Z" fill="#D0C6E8"/>
<path d="M483.709 279.68C483.709 279.68 454.177 256.692 476.244 220.836C476.244 220.836 492.482 232.698 483.709 279.68Z" fill="#D0C6E8"/>
<path d="M459.887 305.726C459.887 305.726 491.068 326.236 514.813 291.569C514.813 291.569 498.37 280.022 459.887 305.726Z" fill="#D0C6E8"/>
<path d="M461.028 306.175C461.028 306.175 433.911 280.088 459.374 246.772C459.374 246.772 474.344 260.362 461.028 306.175Z" fill="#D0C6E8"/>
<path d="M427.035 326.618C427.035 326.618 454.394 352.468 483.363 322.551C483.363 322.551 469.067 308.172 427.035 326.618Z" fill="#D0C6E8"/>
<path d="M428.098 327.271C428.098 327.271 405.677 296.622 436.094 268.332C436.094 268.332 448.62 284.446 428.098 327.271Z" fill="#D0C6E8"/>
<path d="M394.839 337.933C394.839 337.933 414.761 370.474 450.077 349.457C450.077 349.457 439.849 331.628 394.839 337.933Z" fill="#D0C6E8"/>
<path d="M395.674 338.855C395.674 338.855 381.646 303.033 417.935 284.018C417.935 284.018 426.023 303.042 395.674 338.855Z" fill="#D0C6E8"/>
<path d="M560.807 363.576C560.807 368.167 539.379 374.08 331.371 374.08C123.36 374.08 38.2443 370.478 38.2443 365.883C38.2443 361.283 123.36 357.445 331.371 357.445C539.379 357.445 560.807 358.974 560.807 363.576Z" fill="#C5BDE4"/>
<path d="M351.433 59.3491H206.937L147.664 121.078V342.021C147.664 351.866 155.666 359.851 165.537 359.851H351.433C361.304 359.851 369.306 351.866 369.306 342.021V77.182C369.306 67.3332 361.304 59.3491 351.433 59.3491Z" fill="#4F44A4"/>
<path d="M206.937 59.3491L147.664 121.078V122.818H190.564C200.439 122.818 208.441 114.836 208.441 104.99V59.3491H206.937Z" fill="#433D9E"/>
<path d="M318.784 155.828H168.58V143.719H318.784V155.828Z" fill="#A49FD7"/>
<path d="M318.784 181.196H168.58V169.088H318.784V181.196Z" fill="#A49FD7"/>
<path d="M318.784 206.566H168.58V194.458H318.784V206.566Z" fill="#A49FD7"/>
<path d="M318.784 231.935H168.58V219.827H318.784V231.935Z" fill="#A49FD7"/>
<path d="M318.784 257.304H168.58V245.196H318.784V257.304Z" fill="#A49FD7"/>
<path d="M318.784 282.673H168.58V270.564H318.784V282.673Z" fill="#A49FD7"/>
<path d="M396.179 90.5408H271.842L220.842 143.655V333.774C220.842 342.245 227.725 349.117 236.218 349.117H396.179C404.672 349.117 411.556 342.245 411.556 333.774V105.885C411.556 97.4103 404.672 90.5408 396.179 90.5408Z" fill="#D8D6EF"/>
<path d="M271.843 90.5391L220.843 143.652V145.154H257.758C266.253 145.154 273.136 138.284 273.136 129.811V90.5391H271.843Z" fill="#A59FD7"/>
<path d="M396.478 179.065H241.261V166.552H396.478V179.065Z" fill="white"/>
<path d="M396.478 205.281H241.261V192.769H396.478V205.281Z" fill="white"/>
<path d="M396.478 231.496H241.261V218.985H396.478V231.496Z" fill="white"/>
<path d="M396.478 257.711H241.261V245.2H396.478V257.711Z" fill="white"/>
<path d="M396.478 283.927H241.261V271.416H396.478V283.927Z" fill="white"/>
<path d="M396.478 310.143H241.261V297.631H396.478V310.143Z" fill="white"/>
<path d="M477.529 85.3367C477.335 89.9909 473.388 93.5997 468.727 93.3919C464.057 93.1927 460.434 89.2625 460.633 84.6058C460.836 79.949 464.787 76.3428 469.445 76.5428C474.114 76.7394 477.738 80.68 477.529 85.3367Z" fill="#D0C6E8"/>
<path d="M468.148 106.836C456.046 106.317 446.651 96.101 447.18 84.0205C447.7 71.9486 457.933 62.5736 470.044 63.0975C482.153 63.6189 491.552 73.8331 491.02 85.9119C490.503 97.9881 480.264 107.363 468.148 106.836ZM498.513 80.2843C495.843 77.9096 494.432 73.8903 494.961 70.4824C495.295 68.3484 501.303 64.6391 501.303 64.6391L492.338 54.922C492.338 54.922 488.136 60.612 485.98 60.7549C482.692 60.9991 478.962 59.306 476.963 56.5632C475.69 54.8259 477.335 47.9659 477.335 47.9659L464.094 47.3926C464.094 47.3926 465.131 54.3773 463.722 56.0003C461.773 58.2338 458.292 59.3735 455.446 58.8037C453.329 58.3906 449.904 52.2277 449.904 52.2277L439.755 60.7237C439.755 60.7237 445.242 65.1613 445.307 67.3048C445.39 70.918 443.469 74.8958 440.434 77.0514C438.67 78.3028 431.806 76.575 431.806 76.575L431.062 89.7745C431.062 89.7745 438.064 88.8175 439.671 90.2482C442.337 92.6255 443.747 96.6509 443.216 100.053C442.891 102.18 436.865 105.889 436.865 105.889L445.833 115.613C445.833 115.613 450.038 109.93 452.197 109.776C455.475 109.546 459.216 111.229 461.213 113.965C462.49 115.712 460.849 122.562 460.849 122.562L474.083 123.132C474.083 123.132 473.037 116.154 474.445 114.531C476.405 112.294 479.892 111.149 482.73 111.719C484.851 112.147 488.283 118.313 488.283 118.313L498.426 109.811C498.426 109.811 492.935 105.37 492.867 103.217C492.79 99.6111 494.708 95.6394 497.743 93.4795C499.503 92.2324 506.381 93.9593 506.381 93.9593L507.116 80.7606C507.116 80.7606 500.12 81.7107 498.513 80.2843Z" fill="#D0C6E8"/>
<path d="M485.847 85.9907C485.449 95.2228 477.624 102.387 468.37 101.984C459.121 101.579 451.943 93.7817 452.343 84.5496C452.734 75.3062 460.562 68.1596 469.82 68.5536C479.074 68.9555 486.253 76.7586 485.847 85.9907Z" fill="#D0C6E8"/>
<path d="M498.669 194.866C498.669 203.301 491.818 210.135 483.361 210.135C474.906 210.135 468.052 203.301 468.052 194.866C468.052 186.435 474.906 179.598 483.361 179.598C491.818 179.598 498.669 186.435 498.669 194.866Z" fill="#F8C221"/>
<path d="M496.674 167.3C496.674 170.997 493.669 173.988 489.963 173.988C486.257 173.988 483.258 170.997 483.258 167.3C483.258 163.606 486.257 160.609 489.963 160.609C493.669 160.609 496.674 163.606 496.674 167.3Z" fill="#F8C221"/>
<path d="M408.807 205.232C408.807 205.232 406.611 200.807 399.239 203.235C390.683 206.082 378.676 224.191 365.989 224.335C353.305 224.479 348.555 217.04 344.741 212.435C340.933 207.833 341.46 204.303 338.966 201.864C336.474 199.422 333.867 202.381 338.289 211.136C340.403 215.33 348.47 237.162 363.76 239.808C383.793 243.265 415.089 215.387 408.807 205.232Z" fill="#E17965"/>
<path d="M380.498 261.392C375.108 264.23 368.884 265.83 362.819 270.437C325.362 298.954 342.647 321.087 357.405 309.811C370.319 299.948 418.933 287.211 413.26 262.409C411.429 254.419 399.376 247.448 380.498 261.392Z" fill="#EF8970"/>
<path d="M390.943 360.101C384.147 363.081 379.33 362.376 382.798 359.546C386.265 356.698 386.22 356.155 385.578 354.989C377.478 340.121 347.971 329.368 341.315 307.56L365.862 304.521C367.318 307.637 368.671 310.262 370.012 312.127C379.936 326.038 397.749 357.125 390.943 360.101Z" fill="#EF8970"/>
<path d="M419.061 267.435C419.061 267.435 412.077 282.588 388.979 293.556L365.861 304.522C365.861 304.522 378.734 317.025 383.842 334.571C383.842 334.571 380.935 343.238 374.344 342.835C374.344 342.835 342.428 324.795 340.387 304.086C340.387 304.086 337.399 292.9 347.575 281.341C358.693 268.714 400.221 242.519 400.221 242.519C400.221 242.519 406.102 259.554 419.061 267.435Z" fill="#EE1D57"/>
<path d="M407.781 179.761C407.781 179.761 409.822 174.804 414.745 176.092C428.528 179.689 450.326 192.679 445.707 212.882C439.642 239.455 450.326 232.833 454.343 238.678C464.225 253.08 442.91 270.953 424.739 257.783C414.644 250.475 419.975 228.442 417.403 223.167C414.828 217.915 409.615 216.331 408.903 207.453C408.202 198.554 406.659 187.389 405.832 185.077C405.028 182.75 405.973 180.412 407.781 179.761Z" fill="#1A1B3B"/>
<path d="M408.906 207.452C408.571 203.141 408.041 198.338 407.473 194.215C409.318 193.919 409.886 197.191 412.621 197.141C412.621 197.141 425.069 195.772 422.306 199.325C419.567 202.878 425.51 214.64 432.772 214.72C440.031 214.795 444.9 228.919 438.515 232.645C432.119 236.363 435.006 243.378 440.222 245.275C451.162 249.23 442.903 263.567 429.965 260.72C409.969 253.571 420.203 232.327 415.775 226.803C415.689 226.711 418.094 224.236 418.023 224.145C417.769 223.809 417.55 223.498 417.408 223.166C414.827 217.914 409.616 216.331 408.906 207.452Z" fill="#1A1B3B"/>
<path d="M387.623 250.816C387.623 250.816 391.984 248.978 390.025 231.544C389.101 223.224 385.913 222.651 392.819 213.558C399.965 204.16 412.88 200.295 416.98 206.369C424.674 217.817 421.74 223.478 421.013 231.442C420.578 236.051 416.607 244.891 422.891 256.61L387.623 250.816Z" fill="#EF8970"/>
<path d="M425.859 255.289C425.859 255.289 402.279 258.176 387.625 250.814C387.625 250.814 381.754 224.997 390.654 216.604C390.654 216.604 398.014 221.04 403.996 212.617C408.824 205.817 414.923 204.467 414.923 204.467C414.923 204.467 417.309 205.669 419.046 207.056C421.956 209.366 422.928 212.287 422.928 212.287L425.859 255.289Z" fill="#F8C221"/>
<path d="M416.992 187.699C416.992 187.699 411.109 198.463 412.859 202.961C413.841 205.508 401.207 210.53 402.635 207.829C405.287 202.848 404.857 200.712 402.322 196.374L416.992 187.699Z" fill="#E95E4C"/>
<path d="M406.826 179.813C402.739 183.278 397.565 199.129 401.392 202.878C403.064 204.512 410.541 205.826 415.471 196.323C417.067 193.23 420.215 188.206 417.653 182.585C416.481 180.032 411.576 175.789 406.826 179.813Z" fill="#EF8970"/>
<path d="M403.87 180.33C403.359 182.478 403.203 183.733 408.182 183.531C414.281 183.306 412.994 187.502 412.283 188.921C410.221 193.071 417.663 189.249 415.148 194.205C412.631 199.162 419.731 193.431 420.338 192.695C420.961 191.98 423.194 188.764 420.213 181.241C417.24 173.706 405.446 173.76 403.87 180.33Z" fill="#1A1B3B"/>
<path d="M397.015 283.574C396.611 289.648 394.737 295.76 395.494 303.35C400.222 350.114 428.176 347.015 426.276 328.553C424.616 312.414 437.641 267.25 416.875 260.433C409.07 257.856 394.996 260.243 397.015 283.574Z" fill="#EF8970"/>
<path d="M486.783 326.398C485.772 333.743 482.652 337.451 482.05 333.022C481.43 328.588 480.951 328.341 479.62 328.277C462.665 327.364 438.042 346.816 415.929 341.05L426.201 318.592C429.605 319.005 432.574 319.235 434.86 319.066C451.925 317.914 487.8 319.045 486.783 326.398Z" fill="#EF8970"/>
<path d="M425.783 254.221C425.783 254.221 431.666 267.837 428.935 293.227L426.201 318.592C426.201 318.592 443.614 314.201 461.272 319.061C461.272 319.061 467.139 326.06 463.35 331.457C463.35 331.457 431.231 349.146 412.468 340.018C412.468 340.018 401.353 336.708 396.814 322.016C391.857 305.955 392.449 252.791 392.449 252.791C392.449 252.791 412.339 258.405 425.783 254.221Z" fill="#F0346C"/>
<path d="M484.225 322.991C484.225 322.991 488.903 323.277 486.011 330.345C483.139 337.395 481.674 336.042 481.897 332.044C482.123 328.05 486.036 326.111 484.225 322.991Z" fill="#6875C3"/>
<path d="M392.027 356.382C392.027 356.382 394.286 360.487 386.749 361.834C379.236 363.171 379.608 361.2 383.111 359.265C386.628 357.31 390.356 359.595 392.027 356.382Z" fill="#6875C3"/>
<path d="M425.859 255.289C425.859 255.289 410.566 257.157 396.958 254.034C393.35 251.677 402.961 247.779 408.063 247.441C413.899 247.063 408.833 240.556 402.033 240.368C395.225 240.171 392.215 235.384 398.687 236.207C405.161 237.053 409.772 231.145 408.05 225.271C406.332 219.376 409.84 213.539 409.84 213.539L422.812 211.987C422.888 212.161 422.928 212.287 422.928 212.287L425.859 255.289Z" fill="#E8931C"/>
<path d="M435.477 271.677C440.254 275.262 441.224 282.038 437.633 286.815C434.026 291.588 427.237 292.547 422.447 288.961L351.378 235.701C346.601 232.122 345.639 225.343 349.235 220.569C352.827 215.791 359.622 214.83 364.407 218.418L435.477 271.677Z" fill="#4F44A4"/>
<path d="M370.803 215.506C378.329 221.135 379.839 231.777 374.192 239.274C368.54 246.776 357.866 248.29 350.351 242.652L327.656 225.644C320.134 220.014 318.627 209.359 324.274 201.869C329.919 194.372 340.59 192.852 348.101 198.486L370.803 215.506Z" fill="#423C9D"/>
<path d="M249.661 225.007C213.251 215.9 191.133 179.075 200.262 142.752C209.381 106.428 246.302 84.3589 282.708 93.4645C319.122 102.562 341.25 139.397 332.126 175.719C323.003 212.047 286.073 234.109 249.661 225.007ZM287.826 73.1002C240.155 61.1851 191.803 90.0869 179.853 137.647C167.902 185.211 196.874 233.441 244.543 245.362C292.238 257.282 340.585 228.386 352.532 180.82C364.482 133.254 335.514 85.024 287.826 73.1002Z" fill="#F0346C"/>
<path d="M419.572 208.713C419.572 208.713 415.677 205.667 410.074 211.03C403.588 217.28 400.588 238.786 389.202 244.379C377.825 249.965 370.319 245.297 364.891 242.786C359.464 240.273 358.412 236.861 355.106 235.735C351.8 234.604 350.731 238.396 358.505 244.391C362.229 247.266 378.947 263.487 393.885 259.293C413.451 253.792 429.629 215.172 419.572 208.713Z" fill="#E17965"/>
</svg>
