<svg width="25" height="25" viewBox="0 0 25 25" fill="none" xmlns="http://www.w3.org/2000/svg">
<path d="M12.4998 0.0253906C5.61093 0.0253906 0.025177 5.61114 0.025177 12.5001C0.025177 19.389 5.61093 24.9747 12.4998 24.9747C19.3887 24.9747 24.9745 19.389 24.9745 12.5001C24.9745 5.61114 19.3887 0.0253906 12.4998 0.0253906ZM12.4998 22.8585C6.78043 22.8585 2.14141 18.2195 2.14141 12.5001C2.14141 10.0218 3.01297 7.74409 4.46649 5.96199L19.0379 20.5334C17.2558 21.9869 14.9781 22.8585 12.4998 22.8585ZM20.5332 19.0381L5.96178 4.4667C7.74387 3.01318 10.0216 2.14163 12.4998 2.14163C18.2192 2.14163 22.8583 6.78064 22.8583 12.5001C22.8583 14.9783 21.9867 17.256 20.5332 19.0381Z" fill="#E0232E"/>
</svg>
