<svg width="47" height="39" viewBox="0 0 47 39" fill="none" xmlns="http://www.w3.org/2000/svg">
<path d="M32 27.1875L24 19.1875L16 27.1875" stroke="#EF0F3F" stroke-width="2" stroke-linecap="round" stroke-linejoin="round"/>
<path d="M24 19.1875V37.1875" stroke="#EF0F3F" stroke-width="2" stroke-linecap="round" stroke-linejoin="round"/>
<path d="M40.78 31.9675C42.7307 30.904 44.2717 29.2212 45.1598 27.1847C46.0479 25.1482 46.2325 22.8739 45.6845 20.7209C45.1364 18.5678 43.887 16.6585 42.1334 15.2944C40.3797 13.9302 38.2218 13.1889 36 13.1875H33.48C32.8747 10.846 31.7464 8.67214 30.1799 6.82945C28.6135 4.98677 26.6497 3.52317 24.4362 2.54868C22.2227 1.5742 19.8171 1.11419 17.4003 1.20323C14.9834 1.29228 12.6182 1.92807 10.4824 3.0628C8.34662 4.19753 6.49586 5.80167 5.06929 7.75463C3.64271 9.70759 2.67742 11.9585 2.246 14.3383C1.81458 16.718 1.92825 19.1645 2.57847 21.494C3.22869 23.8235 4.39853 25.9752 6.00004 27.7875" stroke="#EF0F3F" stroke-width="2" stroke-linecap="round" stroke-linejoin="round"/>
<path d="M32 27.1875L24 19.1875L16 27.1875" stroke="#EF0F3F" stroke-width="2" stroke-linecap="round" stroke-linejoin="round"/>
</svg>
